<?xml version="1.0" encoding="UTF-8"?>
<!DOCTYPE svg PUBLIC "-//W3C//DTD SVG 1.1//EN" "http://www.w3.org/Graphics/SVG/1.1/DTD/svg11.dtd">
<svg xmlns="http://www.w3.org/2000/svg" version="1.1" width="516px" height="561px" style="shape-rendering:geometricPrecision; text-rendering:geometricPrecision; image-rendering:optimizeQuality; fill-rule:evenodd; clip-rule:evenodd" xmlns:xlink="http://www.w3.org/1999/xlink">
<g><path style="opacity:0.999" fill="#fc8d01" d="M 346.5,78.5 C 347.167,82.1667 347.833,85.8333 348.5,89.5C 348.667,104.837 348.5,120.17 348,135.5C 347.749,133.567 347.249,131.734 346.5,130C 341.871,127.102 337.037,124.602 332,122.5C 331.667,124.167 331.333,125.833 331,127.5C 329.614,118.234 329.114,108.9 329.5,99.5C 329.975,96.9179 329.308,94.9179 327.5,93.5C 327.5,93.1667 327.5,92.8333 327.5,92.5C 328.541,89.2518 327.874,86.2518 325.5,83.5C 325.715,81.8212 325.048,80.8212 323.5,80.5C 318.544,73.5232 312.21,68.1899 304.5,64.5C 301.949,63.5156 299.282,62.5156 296.5,61.5C 270.706,62.1579 245.039,62.8246 219.5,63.5C 216.482,63.7038 213.482,64.0371 210.5,64.5C 206.734,64.7153 203.4,66.0487 200.5,68.5C 195.962,66.4372 191.629,63.9372 187.5,61C 185.564,60.187 183.564,59.687 181.5,59.5C 182.833,57.8333 184.167,56.1667 185.5,54.5C 193.158,47.6742 202.158,43.5076 212.5,42C 242.5,41.3333 272.5,41.3333 302.5,42C 324.005,46.0116 338.672,58.1783 346.5,78.5 Z"/></g>
<g><path style="opacity:0.537" fill="#bd5a24" d="M 185.5,54.5 C 184.167,56.1667 182.833,57.8333 181.5,59.5C 180.167,60.5 178.833,61.5 177.5,62.5C 179.167,58.8333 181.833,56.1667 185.5,54.5 Z"/></g>
<g><path style="opacity:0.235" fill="#d96e11" d="M 304.5,64.5 C 276.188,63.5419 247.854,63.2086 219.5,63.5C 245.039,62.8246 270.706,62.1579 296.5,61.5C 299.282,62.5156 301.949,63.5156 304.5,64.5 Z"/></g>
<g><path style="opacity:1" fill="#fa7c19" d="M 181.5,59.5 C 183.564,59.687 185.564,60.187 187.5,61C 191.629,63.9372 195.962,66.4372 200.5,68.5C 203.4,66.0487 206.734,64.7153 210.5,64.5C 203.436,67.3648 197.436,71.6981 192.5,77.5C 191.094,77.9731 190.427,78.9731 190.5,80.5C 189.499,83.1716 188.499,85.8382 187.5,88.5C 182.787,86.5446 177.787,85.0446 172.5,84C 170.643,82.8176 169.643,81.151 169.5,79C 170.077,76.863 170.41,74.6963 170.5,72.5C 172.062,68.6082 174.395,65.2749 177.5,62.5C 178.833,61.5 180.167,60.5 181.5,59.5 Z"/></g>
<g><path style="opacity:0.008" fill="#94452e" d="M 192.5,77.5 C 192.573,79.0269 191.906,80.0269 190.5,80.5C 190.427,78.9731 191.094,77.9731 192.5,77.5 Z"/></g>
<g><path style="opacity:0.773" fill="#964d29" d="M 323.5,80.5 C 325.048,80.8212 325.715,81.8212 325.5,83.5C 324.599,82.7095 323.932,81.7095 323.5,80.5 Z"/></g>
<g><path style="opacity:0.414" fill="#b75e1d" d="M 346.5,78.5 C 348.483,81.7994 349.483,85.4661 349.5,89.5C 349.167,89.5 348.833,89.5 348.5,89.5C 347.833,85.8333 347.167,82.1667 346.5,78.5 Z"/></g>
<g><path style="opacity:0.227" fill="#894727" d="M 325.5,83.5 C 327.874,86.2518 328.541,89.2518 327.5,92.5C 326.833,89.5 326.167,86.5 325.5,83.5 Z"/></g>
<g><path style="opacity:1" fill="#fb7327" d="M 170.5,72.5 C 170.41,74.6963 170.077,76.863 169.5,79C 169.643,81.151 170.643,82.8176 172.5,84C 177.787,85.0446 182.787,86.5446 187.5,88.5C 186.85,90.4352 186.517,92.4352 186.5,94.5C 185.883,94.6107 185.383,94.944 185,95.5C 184.501,100.155 184.334,104.821 184.5,109.5C 178.488,105.934 172.155,102.934 165.5,100.5C 165.81,97.2869 165.477,94.2869 164.5,91.5C 165.325,84.6974 167.325,78.3641 170.5,72.5 Z"/></g>
<g><path style="opacity:0.392" fill="#a05221" d="M 327.5,93.5 C 329.308,94.9179 329.975,96.9179 329.5,99.5C 329.167,99.5 328.833,99.5 328.5,99.5C 328.675,97.3792 328.341,95.3792 327.5,93.5 Z"/></g>
<g><path style="opacity:1" fill="#ff6b33" d="M 165.5,100.5 C 172.155,102.934 178.488,105.934 184.5,109.5C 184.5,118.167 184.5,126.833 184.5,135.5C 183.751,134.469 183.085,133.302 182.5,132C 176.549,129.634 170.882,126.801 165.5,123.5C 165.5,115.833 165.5,108.167 165.5,100.5 Z"/></g>
<g><path style="opacity:0.024" fill="#c64e38" d="M 186.5,94.5 C 186.47,109.473 186.47,124.14 186.5,138.5C 186.44,139.043 186.107,139.376 185.5,139.5C 184.571,138.311 184.238,136.978 184.5,135.5C 184.5,126.833 184.5,118.167 184.5,109.5C 184.334,104.821 184.501,100.155 185,95.5C 185.383,94.944 185.883,94.6107 186.5,94.5 Z"/></g>
<g><path style="opacity:1" fill="#fe643b" d="M 165.5,123.5 C 170.882,126.801 176.549,129.634 182.5,132C 183.085,133.302 183.751,134.469 184.5,135.5C 184.238,136.978 184.571,138.311 185.5,139.5C 186.107,139.376 186.44,139.043 186.5,138.5C 201.833,138.5 217.167,138.5 232.5,138.5C 231.081,139.451 229.415,139.784 227.5,139.5C 217.828,139.334 208.161,139.5 198.5,140C 230.407,154.924 262.073,170.257 293.5,186C 331.174,203.505 368.508,221.505 405.5,240C 407.548,241.241 409.548,241.408 411.5,240.5C 411.508,243.545 411.841,246.545 412.5,249.5C 411.686,251.631 411.186,253.964 411,256.5C 407.788,252.643 403.621,250.476 398.5,250C 389.966,245.039 381.299,240.372 372.5,236C 362.033,230.953 351.367,226.286 340.5,222C 335.524,218.567 330.19,215.9 324.5,214C 318.592,210.089 312.259,207.089 305.5,205C 294.374,198.707 283.041,192.707 271.5,187C 264.798,184.816 258.464,181.816 252.5,178C 245.798,175.816 239.464,172.816 233.5,169C 226.399,166.572 219.732,163.239 213.5,159C 211.833,158.667 210.167,158.333 208.5,158C 194.825,151.269 181.158,144.436 167.5,137.5C 166.914,137.709 166.414,138.043 166,138.5C 165.501,133.511 165.334,128.511 165.5,123.5 Z"/></g>
<g><path style="opacity:1" fill="#fd5f41" d="M 164.5,91.5 C 165.477,94.2869 165.81,97.2869 165.5,100.5C 165.5,108.167 165.5,115.833 165.5,123.5C 165.334,128.511 165.501,133.511 166,138.5C 166.414,138.043 166.914,137.709 167.5,137.5C 181.158,144.436 194.825,151.269 208.5,158C 210.167,158.333 211.833,158.667 213.5,159C 219.732,163.239 226.399,166.572 233.5,169C 239.464,172.816 245.798,175.816 252.5,178C 258.464,181.816 264.798,184.816 271.5,187C 283.041,192.707 294.374,198.707 305.5,205C 312.259,207.089 318.592,210.089 324.5,214C 330.19,215.9 335.524,218.567 340.5,222C 351.367,226.286 362.033,230.953 372.5,236C 381.299,240.372 389.966,245.039 398.5,250C 403.621,250.476 407.788,252.643 411,256.5C 411.186,253.964 411.686,251.631 412.5,249.5C 412.833,250.833 413.167,252.167 413.5,253.5C 412.853,254.274 412.52,255.274 412.5,256.5C 413.409,261.839 413.909,267.173 414,272.5C 413.487,270.479 412.32,268.979 410.5,268C 324.277,226.321 238.277,184.654 152.5,143C 148.833,142 145.167,141 141.5,140C 148.679,139.829 155.679,139.329 162.5,138.5C 163.239,138.631 163.906,138.464 164.5,138C 163.198,122.716 163.198,107.216 164.5,91.5 Z"/></g>
<g><path style="opacity:1" fill="#fe840b" d="M 348.5,89.5 C 348.833,89.5 349.167,89.5 349.5,89.5C 350.338,89.8417 350.672,90.5084 350.5,91.5C 349.504,107.325 349.17,123.325 349.5,139.5C 358.506,139.334 367.506,139.5 376.5,140C 372.833,140.333 369.167,140.667 365.5,141C 368.188,141.392 370.855,141.892 373.5,142.5C 378.473,145.821 383.807,148.321 389.5,150C 392.071,152.34 394.737,154.506 397.5,156.5C 398.259,160.477 398.925,164.477 399.5,168.5C 398.566,169.568 398.232,170.901 398.5,172.5C 398.631,173.376 398.298,174.043 397.5,174.5C 377.565,163.828 357.398,153.828 337,144.5C 332.768,142.323 328.268,141.157 323.5,141C 325.473,140.505 327.473,140.338 329.5,140.5C 329.737,139.209 329.404,138.209 328.5,137.5C 328.5,124.833 328.5,112.167 328.5,99.5C 328.833,99.5 329.167,99.5 329.5,99.5C 329.114,108.9 329.614,118.234 331,127.5C 331.333,125.833 331.667,124.167 332,122.5C 337.037,124.602 341.871,127.102 346.5,130C 347.249,131.734 347.749,133.567 348,135.5C 348.5,120.17 348.667,104.837 348.5,89.5 Z"/></g>
<g><path style="opacity:0.999" fill="#fe5947" d="M 162.5,138.5 C 155.679,139.329 148.679,139.829 141.5,140C 145.167,141 148.833,142 152.5,143C 238.277,184.654 324.277,226.321 410.5,268C 412.32,268.979 413.487,270.479 414,272.5C 413.909,267.173 413.409,261.839 412.5,256.5C 412.52,255.274 412.853,254.274 413.5,253.5C 414.5,260.169 415.5,266.836 416.5,273.5C 416.151,276.613 416.151,279.946 416.5,283.5C 356.103,255.265 295.77,226.098 235.5,196C 233.122,195.489 230.788,194.822 228.5,194C 221.016,188.925 213.016,184.925 204.5,182C 201.437,180.475 198.77,178.475 196.5,176C 194.45,174.668 192.45,174.502 190.5,175.5C 186.715,169.106 181.049,166.106 173.5,166.5C 159.597,159.915 145.597,153.415 131.5,147C 129.254,145.743 127.921,143.91 127.5,141.5C 129.148,140.073 131.148,139.24 133.5,139C 143.161,138.5 152.828,138.334 162.5,138.5 Z"/></g>
<g><path style="opacity:0.999" fill="#fd6836" d="M 227.5,139.5 C 222.015,140.327 216.348,140.827 210.5,141C 214.25,141.26 217.916,141.927 221.5,143C 256.528,160.166 290.861,176.666 324.5,192.5C 324.833,192.5 325.167,192.5 325.5,192.5C 331.338,200.213 339.004,202.546 348.5,199.5C 347.4,200.558 346.066,201.392 344.5,202C 364.389,212.109 384.723,222.109 405.5,232C 406.701,232.903 407.535,234.069 408,235.5C 408.191,233.292 408.691,231.292 409.5,229.5C 409.848,233.258 410.515,236.924 411.5,240.5C 409.548,241.408 407.548,241.241 405.5,240C 368.508,221.505 331.174,203.505 293.5,186C 262.073,170.257 230.407,154.924 198.5,140C 208.161,139.5 217.828,139.334 227.5,139.5 Z"/></g>
<g><path style="opacity:0.999" fill="#fe6d30" d="M 232.5,138.5 C 246.167,138.5 259.833,138.5 273.5,138.5C 261.019,139.788 248.352,140.621 235.5,141C 241.21,140.892 246.544,142.225 251.5,145C 266.375,152.937 281.375,160.604 296.5,168C 304.517,170.774 312.184,174.108 319.5,178C 319.915,180.026 320.915,181.526 322.5,182.5C 322.833,182.5 323.167,182.5 323.5,182.5C 323.5,184.167 323.5,185.833 323.5,187.5C 323.366,189.292 323.699,190.958 324.5,192.5C 290.861,176.666 256.528,160.166 221.5,143C 217.916,141.927 214.25,141.26 210.5,141C 216.348,140.827 222.015,140.327 227.5,139.5C 229.415,139.784 231.081,139.451 232.5,138.5 Z"/></g>
<g><path style="opacity:0.999" fill="#fd722a" d="M 273.5,138.5 C 283.833,138.5 294.167,138.5 304.5,138.5C 291.983,139.237 279.316,140.071 266.5,141C 268.833,141.333 271.167,141.667 273.5,142C 279.289,145.23 285.289,147.896 291.5,150C 304.067,155.997 316.4,162.497 328.5,169.5C 330.638,167.218 332.971,166.551 335.5,167.5C 330.458,168.85 326.792,171.85 324.5,176.5C 322.72,177.99 322.054,179.99 322.5,182.5C 320.915,181.526 319.915,180.026 319.5,178C 312.184,174.108 304.517,170.774 296.5,168C 281.375,160.604 266.375,152.937 251.5,145C 246.544,142.225 241.21,140.892 235.5,141C 248.352,140.621 261.019,139.788 273.5,138.5 Z"/></g>
<g><path style="opacity:1" fill="#fd7920" d="M 304.5,138.5 C 312.5,138.5 320.5,138.5 328.5,138.5C 318.378,140.056 308.045,140.89 297.5,141C 301.584,141.231 305.584,141.898 309.5,143C 339.445,157.927 369.445,172.761 399.5,187.5C 400.098,188.795 400.598,190.128 401,191.5C 400.664,187.667 400.831,184 401.5,180.5C 402.207,183.786 402.54,187.119 402.5,190.5C 402.647,196.233 403.314,201.9 404.5,207.5C 403.163,206.685 402.163,205.518 401.5,204C 390.009,198.512 378.675,192.845 367.5,187C 365.22,186.767 363.22,185.934 361.5,184.5C 360.808,185.025 360.308,185.692 360,186.5C 359.809,184.292 359.309,182.292 358.5,180.5C 357.587,178.914 357.587,177.414 358.5,176C 357.473,175.487 356.473,174.987 355.5,174.5C 350.362,167.788 343.696,165.454 335.5,167.5C 332.971,166.551 330.638,167.218 328.5,169.5C 316.4,162.497 304.067,155.997 291.5,150C 285.289,147.896 279.289,145.23 273.5,142C 271.167,141.667 268.833,141.333 266.5,141C 279.316,140.071 291.983,139.237 304.5,138.5 Z"/></g>
<g><path style="opacity:1" fill="#fe7e18" d="M 328.5,137.5 C 329.404,138.209 329.737,139.209 329.5,140.5C 327.473,140.338 325.473,140.505 323.5,141C 328.268,141.157 332.768,142.323 337,144.5C 357.398,153.828 377.565,163.828 397.5,174.5C 398.298,174.043 398.631,173.376 398.5,172.5C 398.98,175.078 399.98,177.412 401.5,179.5C 401.5,179.833 401.5,180.167 401.5,180.5C 400.831,184 400.664,187.667 401,191.5C 400.598,190.128 400.098,188.795 399.5,187.5C 369.445,172.761 339.445,157.927 309.5,143C 305.584,141.898 301.584,141.231 297.5,141C 308.045,140.89 318.378,140.056 328.5,138.5C 328.5,138.167 328.5,137.833 328.5,137.5 Z"/></g>
<g><path style="opacity:0.995" fill="#f27f0c" d="M 350.5,91.5 C 350.5,107.167 350.5,122.833 350.5,138.5C 361.231,138.097 371.898,138.597 382.5,140C 390.144,143.142 395.144,148.642 397.5,156.5C 394.737,154.506 392.071,152.34 389.5,150C 383.807,148.321 378.473,145.821 373.5,142.5C 370.855,141.892 368.188,141.392 365.5,141C 369.167,140.667 372.833,140.333 376.5,140C 367.506,139.5 358.506,139.334 349.5,139.5C 349.17,123.325 349.504,107.325 350.5,91.5 Z"/></g>
<g><path style="opacity:0.999" fill="#fb524d" d="M 127.5,141.5 C 127.921,143.91 129.254,145.743 131.5,147C 145.597,153.415 159.597,159.915 173.5,166.5C 167.24,167.105 162.574,170.105 159.5,175.5C 146.067,169.075 132.567,162.742 119,156.5C 117.405,155.644 116.572,154.311 116.5,152.5C 118.5,147.167 122.167,143.5 127.5,141.5 Z"/></g>
<g><path style="opacity:0.988" fill="#fc4d54" d="M 116.5,152.5 C 116.572,154.311 117.405,155.644 119,156.5C 132.567,162.742 146.067,169.075 159.5,175.5C 158.586,178.728 158.253,182.061 158.5,185.5C 157.178,185.33 156.011,185.663 155,186.5C 151.5,184.333 148,182.167 144.5,180C 134.401,175.02 124.068,170.52 113.5,166.5C 113.044,161.393 114.044,156.726 116.5,152.5 Z"/></g>
<g><path style="opacity:0.999" fill="#fd4759" d="M 113.5,166.5 C 124.068,170.52 134.401,175.02 144.5,180C 148,182.167 151.5,184.333 155,186.5C 156.011,185.663 157.178,185.33 158.5,185.5C 159.966,194.794 165.466,199.794 175,200.5C 178.292,200.345 181.459,199.678 184.5,198.5C 187.001,201.11 190.001,203.277 193.5,205C 201.118,208.536 208.785,211.869 216.5,215C 249.965,232.276 283.965,248.609 318.5,264C 327.337,268.373 336.004,273.04 344.5,278C 369.178,288.896 393.511,300.562 417.5,313C 418.793,313.49 420.127,313.657 421.5,313.5C 421.5,311.5 421.5,309.5 421.5,307.5C 422.734,311.994 423.734,316.661 424.5,321.5C 423.549,322.919 423.216,324.585 423.5,326.5C 422.883,326.611 422.383,326.944 422,327.5C 401.482,318.436 381.316,308.602 361.5,298C 359.833,297.667 358.167,297.333 356.5,297C 346.744,291.123 336.744,285.79 326.5,281C 316.968,277.381 307.635,273.381 298.5,269C 295.873,267.69 293.54,266.023 291.5,264C 267.738,253.287 244.071,242.287 220.5,231C 187.028,213.959 153.028,197.459 118.5,181.5C 116.864,179.216 115.531,176.882 114.5,174.5C 113.908,171.873 113.575,169.206 113.5,166.5 Z"/></g>
<g><path style="opacity:0.737" fill="#be5828" d="M 399.5,168.5 C 400.06,172.193 400.727,175.86 401.5,179.5C 399.98,177.412 398.98,175.078 398.5,172.5C 398.232,170.901 398.566,169.568 399.5,168.5 Z"/></g>
<g><path style="opacity:1" fill="#bf552f" d="M 355.5,174.5 C 356.473,174.987 357.473,175.487 358.5,176C 357.587,177.414 357.587,178.914 358.5,180.5C 358.784,182.415 358.451,184.081 357.5,185.5C 357.586,181.681 356.919,178.015 355.5,174.5 Z"/></g>
<g><path style="opacity:1" fill="#fe544d" d="M 416.5,283.5 C 417.167,284.833 417.833,286.167 418.5,287.5C 418.5,288.167 418.5,288.833 418.5,289.5C 418.813,293.042 418.479,296.375 417.5,299.5C 412.809,295.727 407.642,292.394 402,289.5C 393.255,285.546 384.422,281.713 375.5,278C 369.582,274.071 363.248,271.071 356.5,269C 345.923,263.143 335.256,257.476 324.5,252C 317.783,249.808 311.449,246.808 305.5,243C 300.323,241.613 295.656,239.279 291.5,236C 282.465,233.315 274.132,229.315 266.5,224C 259.732,221.894 253.399,218.894 247.5,215C 228.887,207.026 210.554,198.526 192.5,189.5C 194.112,185.221 193.779,181.221 191.5,177.5C 190.662,177.158 190.328,176.492 190.5,175.5C 192.45,174.502 194.45,174.668 196.5,176C 198.77,178.475 201.437,180.475 204.5,182C 213.016,184.925 221.016,188.925 228.5,194C 230.788,194.822 233.122,195.489 235.5,196C 295.77,226.098 356.103,255.265 416.5,283.5 Z"/></g>
<g><path style="opacity:0.529" fill="#af4835" d="M 324.5,176.5 C 324.167,178.5 323.833,180.5 323.5,182.5C 323.167,182.5 322.833,182.5 322.5,182.5C 322.054,179.99 322.72,177.99 324.5,176.5 Z"/></g>
<g><path style="opacity:0.573" fill="#b73a47" d="M 191.5,177.5 C 193.779,181.221 194.112,185.221 192.5,189.5C 192.167,189.5 191.833,189.5 191.5,189.5C 192.833,185.5 192.833,181.5 191.5,177.5 Z"/></g>
<g><path style="opacity:1" fill="#fe4160" d="M 114.5,174.5 C 115.531,176.882 116.864,179.216 118.5,181.5C 153.028,197.459 187.028,213.959 220.5,231C 244.071,242.287 267.738,253.287 291.5,264C 293.54,266.023 295.873,267.69 298.5,269C 307.635,273.381 316.968,277.381 326.5,281C 336.744,285.79 346.744,291.123 356.5,297C 358.167,297.333 359.833,297.667 361.5,298C 381.316,308.602 401.482,318.436 422,327.5C 422.383,326.944 422.883,326.611 423.5,326.5C 424.346,331.521 425.679,336.187 427.5,340.5C 427.5,340.833 427.5,341.167 427.5,341.5C 425.623,342.571 424.956,343.905 425.5,345.5C 397.266,332.279 369.433,318.612 342,304.5C 341.667,304.833 341.333,305.167 341,305.5C 341.03,302.639 340.197,300.305 338.5,298.5C 337.025,296.59 335.025,295.424 332.5,295C 326.416,294.153 320.416,292.987 314.5,291.5C 314.5,290.5 314.5,289.5 314.5,288.5C 312.738,288.357 311.071,288.691 309.5,289.5C 250.033,259.936 190.033,231.103 129.5,203C 126.617,200.391 123.283,198.558 119.5,197.5C 118.894,194.66 117.561,192.327 115.5,190.5C 115.02,185.178 114.687,179.845 114.5,174.5 Z"/></g>
<g><path style="opacity:1" fill="#fe7329" d="M 358.5,180.5 C 359.309,182.292 359.809,184.292 360,186.5C 360.308,185.692 360.808,185.025 361.5,184.5C 363.22,185.934 365.22,186.767 367.5,187C 378.675,192.845 390.009,198.512 401.5,204C 402.163,205.518 403.163,206.685 404.5,207.5C 404.229,209.38 404.896,210.713 406.5,211.5C 406.5,211.833 406.5,212.167 406.5,212.5C 405.842,213.398 405.176,214.398 404.5,215.5C 403.205,214.902 401.872,214.402 400.5,214C 385.61,207.054 370.944,199.887 356.5,192.5C 357.451,191.081 357.784,189.415 357.5,187.5C 357.5,186.833 357.5,186.167 357.5,185.5C 358.451,184.081 358.784,182.415 358.5,180.5 Z"/></g>
<g><path style="opacity:0.051" fill="#883739" d="M 323.5,187.5 C 324.537,188.93 325.204,190.597 325.5,192.5C 325.167,192.5 324.833,192.5 324.5,192.5C 323.699,190.958 323.366,189.292 323.5,187.5 Z"/></g>
<g><path style="opacity:1" fill="#fe5051" d="M 191.5,189.5 C 191.833,189.5 192.167,189.5 192.5,189.5C 210.554,198.526 228.887,207.026 247.5,215C 253.399,218.894 259.732,221.894 266.5,224C 274.132,229.315 282.465,233.315 291.5,236C 295.656,239.279 300.323,241.613 305.5,243C 311.449,246.808 317.783,249.808 324.5,252C 335.256,257.476 345.923,263.143 356.5,269C 363.248,271.071 369.582,274.071 375.5,278C 384.422,281.713 393.255,285.546 402,289.5C 407.642,292.394 412.809,295.727 417.5,299.5C 411.524,298.345 406.191,295.845 401.5,292C 386.56,285.529 371.893,278.529 357.5,271C 347.251,266.139 336.917,261.473 326.5,257C 323.873,255.69 321.54,254.023 319.5,252C 316.768,251.587 314.101,250.92 311.5,250C 272.724,230.114 233.391,210.948 193.5,192.5C 191.786,193.609 191.119,192.942 191.5,190.5C 191.5,190.167 191.5,189.833 191.5,189.5 Z"/></g>
<g><path style="opacity:0.914" fill="#b54e34" d="M 357.5,187.5 C 357.784,189.415 357.451,191.081 356.5,192.5C 356.167,192.5 355.833,192.5 355.5,192.5C 355.796,190.597 356.463,188.93 357.5,187.5 Z"/></g>
<g><path style="opacity:1" fill="#fe4d54" d="M 191.5,190.5 C 191.119,192.942 191.786,193.609 193.5,192.5C 233.391,210.948 272.724,230.114 311.5,250C 314.101,250.92 316.768,251.587 319.5,252C 321.54,254.023 323.873,255.69 326.5,257C 336.917,261.473 347.251,266.139 357.5,271C 371.893,278.529 386.56,285.529 401.5,292C 406.191,295.845 411.524,298.345 417.5,299.5C 418.479,296.375 418.813,293.042 418.5,289.5C 420.128,295.268 421.128,301.268 421.5,307.5C 421.5,309.5 421.5,311.5 421.5,313.5C 420.127,313.657 418.793,313.49 417.5,313C 393.511,300.562 369.178,288.896 344.5,278C 336.004,273.04 327.337,268.373 318.5,264C 283.965,248.609 249.965,232.276 216.5,215C 208.785,211.869 201.118,208.536 193.5,205C 190.001,203.277 187.001,201.11 184.5,198.5C 186.833,195.833 189.167,193.167 191.5,190.5 Z"/></g>
<g><path style="opacity:0.998" fill="#fd3b65" d="M 115.5,190.5 C 117.561,192.327 118.894,194.66 119.5,197.5C 123.283,198.558 126.617,200.391 129.5,203C 190.033,231.103 250.033,259.936 309.5,289.5C 311.071,288.691 312.738,288.357 314.5,288.5C 314.5,289.5 314.5,290.5 314.5,291.5C 297,288.033 279.667,284.366 262.5,280.5C 243.905,271.117 225.239,261.617 206.5,252C 204.122,251.489 201.788,250.822 199.5,250C 195.697,247.929 192.03,245.596 188.5,243C 181.761,240.946 175.428,237.946 169.5,234C 162.099,231.637 155.099,228.304 148.5,224C 146.122,223.489 143.788,222.822 141.5,222C 134.714,217.274 127.381,213.607 119.5,211C 119.085,208.974 118.085,207.474 116.5,206.5C 116.528,201.138 116.194,195.805 115.5,190.5 Z"/></g>
<g><path style="opacity:0.999" fill="#fd6c31" d="M 355.5,192.5 C 355.833,192.5 356.167,192.5 356.5,192.5C 370.944,199.887 385.61,207.054 400.5,214C 401.872,214.402 403.205,214.902 404.5,215.5C 405.176,214.398 405.842,213.398 406.5,212.5C 407.593,218.151 408.593,223.818 409.5,229.5C 408.691,231.292 408.191,233.292 408,235.5C 407.535,234.069 406.701,232.903 405.5,232C 384.723,222.109 364.389,212.109 344.5,202C 346.066,201.392 347.4,200.558 348.5,199.5C 351.167,197.5 353.5,195.167 355.5,192.5 Z"/></g>
<g><path style="opacity:0.643" fill="#c8562e" d="M 402.5,190.5 C 404.192,197.305 405.526,204.305 406.5,211.5C 404.896,210.713 404.229,209.38 404.5,207.5C 403.314,201.9 402.647,196.233 402.5,190.5 Z"/></g>
<g><path style="opacity:0.999" fill="#f32d68" d="M 98.5,214.5 C 97.6787,217.641 97.1787,220.975 97,224.5C 96.044,223.421 95.2106,222.255 94.5,221C 91.266,220.289 88.0994,219.455 85,218.5C 84.195,220.901 83.3617,220.734 82.5,218C 83.8651,212.922 84.8651,207.756 85.5,202.5C 88.2323,199.101 91.5656,198.601 95.5,201C 96.7014,201.903 97.5348,203.069 98,204.5C 98.4983,207.817 98.665,211.15 98.5,214.5 Z"/></g>
<g><path style="opacity:0.998" fill="#fd346c" d="M 116.5,206.5 C 118.085,207.474 119.085,208.974 119.5,211C 127.381,213.607 134.714,217.274 141.5,222C 143.788,222.822 146.122,223.489 148.5,224C 155.099,228.304 162.099,231.637 169.5,234C 175.428,237.946 181.761,240.946 188.5,243C 192.03,245.596 195.697,247.929 199.5,250C 201.788,250.822 204.122,251.489 206.5,252C 225.239,261.617 243.905,271.117 262.5,280.5C 249.828,278.166 237.161,275.832 224.5,273.5C 224.38,272.414 223.713,271.747 222.5,271.5C 219.56,272.304 216.893,273.637 214.5,275.5C 210.464,272.567 205.964,270.567 201,269.5C 189.583,264.445 178.416,258.445 167.5,251.5C 160.515,249.28 153.849,246.28 147.5,242.5C 146.914,242.709 146.414,243.043 146,243.5C 140.91,240.145 135.743,236.978 130.5,234C 129.216,233.316 128.049,233.483 127,234.5C 124.04,232.533 122.04,229.866 121,226.5C 120.667,227.167 120.333,227.833 120,228.5C 119.79,226.942 119.29,225.609 118.5,224.5C 118.13,218.421 117.463,212.421 116.5,206.5 Z"/></g>
<g><path style="opacity:1" fill="#fd2d72" d="M 118.5,224.5 C 119.29,225.609 119.79,226.942 120,228.5C 120.333,227.833 120.667,227.167 121,226.5C 122.04,229.866 124.04,232.533 127,234.5C 128.049,233.483 129.216,233.316 130.5,234C 135.743,236.978 140.91,240.145 146,243.5C 146.414,243.043 146.914,242.709 147.5,242.5C 153.849,246.28 160.515,249.28 167.5,251.5C 178.416,258.445 189.583,264.445 201,269.5C 205.964,270.567 210.464,272.567 214.5,275.5C 216.893,273.637 219.56,272.304 222.5,271.5C 223.713,271.747 224.38,272.414 224.5,273.5C 220.054,273.056 216.721,274.723 214.5,278.5C 213.869,280.903 212.869,283.236 211.5,285.5C 202.003,280.961 192.67,276.128 183.5,271C 175.224,270.192 167.891,267.192 161.5,262C 154.202,259.798 147.535,256.465 141.5,252C 134.913,250.08 128.747,247.246 123,243.5C 122.667,243.833 122.333,244.167 122,244.5C 121.95,242.256 121.117,240.589 119.5,239.5C 119.084,234.507 118.751,229.507 118.5,224.5 Z"/></g>
<g><path style="opacity:1" fill="#ec236f" d="M 85.5,202.5 C 84.8651,207.756 83.8651,212.922 82.5,218C 83.3617,220.734 84.195,220.901 85,218.5C 88.0994,219.455 91.266,220.289 94.5,221C 95.2106,222.255 96.044,223.421 97,224.5C 97.1787,220.975 97.6787,217.641 98.5,214.5C 99.0802,218.81 99.4135,223.143 99.5,227.5C 98.2057,229.048 97.5391,231.048 97.5,233.5C 98.303,239.159 98.4696,244.825 98,250.5C 98.4403,246.587 96.9403,243.921 93.5,242.5C 92.914,242.709 92.414,243.043 92,243.5C 89.0381,240.601 85.5381,238.601 81.5,237.5C 80.8892,233.345 80.5559,229.345 80.5,225.5C 81.5561,218.163 82.7228,210.829 84,203.5C 84.3826,202.944 84.8826,202.611 85.5,202.5 Z"/></g>
<g><path style="opacity:0.999" fill="#fd2778" d="M 119.5,239.5 C 121.117,240.589 121.95,242.256 122,244.5C 122.333,244.167 122.667,243.833 123,243.5C 128.747,247.246 134.913,250.08 141.5,252C 147.535,256.465 154.202,259.798 161.5,262C 167.891,267.192 175.224,270.192 183.5,271C 192.67,276.128 202.003,280.961 211.5,285.5C 212.869,283.236 213.869,280.903 214.5,278.5C 214.777,283.886 215.444,289.219 216.5,294.5C 216.632,297.889 216.799,301.223 217,304.5C 187.185,289.343 157.018,274.843 126.5,261C 124.6,258.665 122.6,256.498 120.5,254.5C 120.587,249.463 120.254,244.463 119.5,239.5 Z"/></g>
<g><path style="opacity:0.998" fill="#e31d76" d="M 80.5,225.5 C 80.5559,229.345 80.8892,233.345 81.5,237.5C 85.5381,238.601 89.0381,240.601 92,243.5C 92.414,243.043 92.914,242.709 93.5,242.5C 96.9403,243.921 98.4403,246.587 98,250.5C 98.4696,244.825 98.303,239.159 97.5,233.5C 97.5391,231.048 98.2057,229.048 99.5,227.5C 99.3666,236.41 99.6999,245.41 100.5,254.5C 99.6773,257.977 99.1773,261.644 99,265.5C 92.3013,262.799 85.4679,260.465 78.5,258.5C 77.7379,257.372 77.0712,256.205 76.5,255C 78.3225,250.806 78.6558,246.639 77.5,242.5C 78.7779,236.889 79.7779,231.223 80.5,225.5 Z"/></g>
<g><path style="opacity:1" fill="#fd227f" d="M 120.5,254.5 C 122.6,256.498 124.6,258.665 126.5,261C 157.018,274.843 187.185,289.343 217,304.5C 216.799,301.223 216.632,297.889 216.5,294.5C 217.581,297.627 218.247,300.96 218.5,304.5C 218.46,307.881 218.793,311.214 219.5,314.5C 218.552,316.46 218.386,318.46 219,320.5C 216.429,318.647 213.762,316.981 211,315.5C 210.667,315.833 210.333,316.167 210,316.5C 203.839,313.42 197.839,310.087 192,306.5C 189.438,306.738 187.104,305.738 185,303.5C 184.667,303.833 184.333,304.167 184,304.5C 179.865,300.71 175.032,298.21 169.5,297C 165.241,295.066 161.241,292.732 157.5,290C 147.251,285.139 136.917,280.473 126.5,276C 125.285,273.625 123.619,271.791 121.5,270.5C 121.528,265.138 121.194,259.805 120.5,254.5 Z"/></g>
<g><path style="opacity:1" fill="#d31f7d" d="M 77.5,242.5 C 78.6558,246.639 78.3225,250.806 76.5,255C 77.0712,256.205 77.7379,257.372 78.5,258.5C 85.4679,260.465 92.3013,262.799 99,265.5C 99.1773,261.644 99.6773,257.977 100.5,254.5C 101.135,263.181 101.802,271.847 102.5,280.5C 101.167,284.5 99.8333,288.5 98.5,292.5C 90.7127,289.412 83.046,286.079 75.5,282.5C 74.8076,283.025 74.3076,283.692 74,284.5C 73.8312,279.172 73.9979,273.838 74.5,268.5C 75.1255,259.788 76.1255,251.122 77.5,242.5 Z"/></g>
<g><path style="opacity:0.004" fill="#b93d45" d="M 416.5,273.5 C 417.445,278.114 418.112,282.781 418.5,287.5C 417.833,286.167 417.167,284.833 416.5,283.5C 416.151,279.946 416.151,276.613 416.5,273.5 Z"/></g>
<g><path style="opacity:1" fill="#fb2586" d="M 121.5,270.5 C 123.619,271.791 125.285,273.625 126.5,276C 136.917,280.473 147.251,285.139 157.5,290C 161.241,292.732 165.241,295.066 169.5,297C 175.032,298.21 179.865,300.71 184,304.5C 184.333,304.167 184.667,303.833 185,303.5C 187.104,305.738 189.438,306.738 192,306.5C 197.839,310.087 203.839,313.42 210,316.5C 210.333,316.167 210.667,315.833 211,315.5C 213.762,316.981 216.429,318.647 219,320.5C 218.386,318.46 218.552,316.46 219.5,314.5C 220.167,314.5 220.833,314.5 221.5,314.5C 221.5,315.167 221.5,315.833 221.5,316.5C 220.442,320.371 221.109,324.037 223.5,327.5C 223.5,328.5 223.5,329.5 223.5,330.5C 223.663,332.857 223.497,335.19 223,337.5C 221.535,334.701 219.368,332.535 216.5,331C 186.171,316.664 156.338,302.164 127,287.5C 126.667,288.5 126.333,289.5 126,290.5C 125.333,287.167 124.667,283.833 124,280.5C 123.617,279.944 123.117,279.611 122.5,279.5C 122.632,276.43 122.299,273.43 121.5,270.5 Z"/></g>
<g><path style="opacity:0.998" fill="#ca2185" d="M 74.5,268.5 C 73.9979,273.838 73.8312,279.172 74,284.5C 74.3076,283.692 74.8076,283.025 75.5,282.5C 83.046,286.079 90.7127,289.412 98.5,292.5C 101.326,296.281 102.159,300.614 101,305.5C 92.9615,300.491 84.2949,296.824 75,294.5C 73.6739,294.755 72.6739,295.422 72,296.5C 71.7489,291.499 71.9155,286.499 72.5,281.5C 72.4379,276.924 73.1045,272.591 74.5,268.5 Z"/></g>
<g><path style="opacity:1" fill="#f5278c" d="M 122.5,279.5 C 123.117,279.611 123.617,279.944 124,280.5C 124.667,283.833 125.333,287.167 126,290.5C 126.333,289.5 126.667,288.5 127,287.5C 156.338,302.164 186.171,316.664 216.5,331C 219.368,332.535 221.535,334.701 223,337.5C 223.497,335.19 223.663,332.857 223.5,330.5C 224.451,331.919 224.784,333.585 224.5,335.5C 224.664,338.187 224.497,340.854 224,343.5C 223.586,343.957 223.086,344.291 222.5,344.5C 217.579,341.121 212.412,338.121 207,335.5C 200.619,333.977 194.619,330.977 189,326.5C 182.342,324.276 176.009,321.276 170,317.5C 162.029,315.172 154.696,311.506 148,306.5C 147.586,306.957 147.086,307.291 146.5,307.5C 140.532,304.181 134.532,300.848 128.5,297.5C 127.824,298.602 127.158,299.602 126.5,300.5C 126.771,298.62 126.104,297.287 124.5,296.5C 123.67,290.895 123.004,285.228 122.5,279.5 Z"/></g>
<g><path style="opacity:1" fill="#c12288" d="M 102.5,280.5 C 102.592,289.983 102.592,299.317 102.5,308.5C 102.5,310.833 102.5,313.167 102.5,315.5C 98.7783,314.983 95.1117,314.15 91.5,313C 85.1988,309.735 78.8654,306.569 72.5,303.5C 71.787,305.435 70.787,305.768 69.5,304.5C 69.9539,302.259 69.9539,300.259 69.5,298.5C 70.0492,292.626 71.0492,286.959 72.5,281.5C 71.9155,286.499 71.7489,291.499 72,296.5C 72.6739,295.422 73.6739,294.755 75,294.5C 84.2949,296.824 92.9615,300.491 101,305.5C 102.159,300.614 101.326,296.281 98.5,292.5C 99.8333,288.5 101.167,284.5 102.5,280.5 Z"/></g>
<g><path style="opacity:1" fill="#f12992" d="M 224.5,335.5 C 226.13,339.911 227.13,344.578 227.5,349.5C 227.5,351.833 227.5,354.167 227.5,356.5C 193.993,341.168 160.826,325.168 128,308.5C 127.667,308.833 127.333,309.167 127,309.5C 126.502,306.518 126.335,303.518 126.5,300.5C 127.158,299.602 127.824,298.602 128.5,297.5C 134.532,300.848 140.532,304.181 146.5,307.5C 147.086,307.291 147.586,306.957 148,306.5C 154.696,311.506 162.029,315.172 170,317.5C 176.009,321.276 182.342,324.276 189,326.5C 194.619,330.977 200.619,333.977 207,335.5C 212.412,338.121 217.579,341.121 222.5,344.5C 223.086,344.291 223.586,343.957 224,343.5C 224.497,340.854 224.664,338.187 224.5,335.5 Z"/></g>
<g><path style="opacity:0.999" fill="#fd3b66" d="M 338.5,298.5 C 340.197,300.305 341.03,302.639 341,305.5C 341.333,305.167 341.667,304.833 342,304.5C 369.433,318.612 397.266,332.279 425.5,345.5C 424.956,343.905 425.623,342.571 427.5,341.5C 428.207,344.786 428.54,348.119 428.5,351.5C 428.816,355.525 428.983,359.525 429,363.5C 396.161,347.163 363.328,330.997 330.5,315C 332.027,313.968 333.36,312.801 334.5,311.5C 339.298,308.323 340.631,303.989 338.5,298.5 Z"/></g>
<g><path style="opacity:0.412" fill="#aa1865" d="M 218.5,304.5 C 219.49,307.743 220.49,311.076 221.5,314.5C 220.833,314.5 220.167,314.5 219.5,314.5C 218.793,311.214 218.46,307.881 218.5,304.5 Z"/></g>
<g><path style="opacity:1" fill="#b8248f" d="M 102.5,308.5 C 103.493,317.326 104.16,326.326 104.5,335.5C 103.732,336.263 103.232,337.263 103,338.5C 94.1627,332.678 84.6627,328.178 74.5,325C 72.4744,323.041 70.3078,322.207 68,322.5C 67.5357,321.906 67.369,321.239 67.5,320.5C 67.7774,315.114 68.4441,309.781 69.5,304.5C 70.787,305.768 71.787,305.435 72.5,303.5C 78.8654,306.569 85.1988,309.735 91.5,313C 95.1117,314.15 98.7783,314.983 102.5,315.5C 102.5,313.167 102.5,310.833 102.5,308.5 Z"/></g>
<g><path style="opacity:0.998" fill="#eb2c98" d="M 124.5,296.5 C 126.104,297.287 126.771,298.62 126.5,300.5C 126.335,303.518 126.502,306.518 127,309.5C 127.333,309.167 127.667,308.833 128,308.5C 160.826,325.168 193.993,341.168 227.5,356.5C 228.413,360.107 229.747,363.44 231.5,366.5C 231.5,366.833 231.5,367.167 231.5,367.5C 230.662,367.842 230.328,368.508 230.5,369.5C 230.092,370.643 229.425,371.643 228.5,372.5C 217.459,366.299 206.293,360.299 195,354.5C 193.667,354.5 192.333,354.5 191,354.5C 185,351.167 179,347.833 173,344.5C 172.667,344.833 172.333,345.167 172,345.5C 168.34,343.169 164.674,340.836 161,338.5C 150.366,334.007 139.866,329.34 129.5,324.5C 128.199,322.556 127.199,320.556 126.5,318.5C 125.35,311.636 124.684,304.303 124.5,296.5 Z"/></g>
<g><path style="opacity:1" fill="#fd336d" d="M 334.5,311.5 C 333.36,312.801 332.027,313.968 330.5,315C 363.328,330.997 396.161,347.163 429,363.5C 428.983,359.525 428.816,355.525 428.5,351.5C 430.285,358.625 431.618,365.958 432.5,373.5C 430.744,374.552 430.077,376.219 430.5,378.5C 420.356,375.158 410.689,370.658 401.5,365C 372.198,351.692 343.198,338.025 314.5,324C 312.393,322.736 311.393,320.903 311.5,318.5C 314.461,318.536 316.794,317.536 318.5,315.5C 323.675,313.553 329.008,312.22 334.5,311.5 Z"/></g>
<g><path style="opacity:0.275" fill="#a71968" d="M 221.5,316.5 C 222.326,320.136 222.992,323.803 223.5,327.5C 221.109,324.037 220.442,320.371 221.5,316.5 Z"/></g>
<g><path style="opacity:1" fill="#fc2d72" d="M 318.5,315.5 C 316.794,317.536 314.461,318.536 311.5,318.5C 311.393,320.903 312.393,322.736 314.5,324C 343.198,338.025 372.198,351.692 401.5,365C 410.689,370.658 420.356,375.158 430.5,378.5C 430.077,376.219 430.744,374.552 432.5,373.5C 433.593,377.394 434.26,381.394 434.5,385.5C 434.014,387.952 434.014,390.618 434.5,393.5C 425.647,390.932 417.314,387.098 409.5,382C 403.81,380.1 398.476,377.433 393.5,374C 391.212,373.178 388.878,372.511 386.5,372C 365.246,360.638 343.579,350.138 321.5,340.5C 320.571,339.311 320.238,337.978 320.5,336.5C 316.003,335.555 311.67,334.222 307.5,332.5C 303.702,329.204 300.036,325.704 296.5,322C 303.605,320.21 310.939,318.043 318.5,315.5 Z"/></g>
<g><path style="opacity:0.998" fill="#b12694" d="M 67.5,320.5 C 67.369,321.239 67.5357,321.906 68,322.5C 70.3078,322.207 72.4744,323.041 74.5,325C 84.6627,328.178 94.1627,332.678 103,338.5C 103.232,337.263 103.732,336.263 104.5,335.5C 104.5,339.5 104.5,343.5 104.5,347.5C 97.2922,344.383 89.9589,342.216 82.5,341C 77.2153,336.863 71.5486,334.696 65.5,334.5C 65.5319,329.609 66.1985,324.943 67.5,320.5 Z"/></g>
<g><path style="opacity:0.373" fill="#bd3253" d="M 424.5,321.5 C 425.394,327.861 426.394,334.194 427.5,340.5C 425.679,336.187 424.346,331.521 423.5,326.5C 423.216,324.585 423.549,322.919 424.5,321.5 Z"/></g>
<g><path style="opacity:1" fill="#e52f9f" d="M 126.5,318.5 C 127.199,320.556 128.199,322.556 129.5,324.5C 139.866,329.34 150.366,334.007 161,338.5C 164.674,340.836 168.34,343.169 172,345.5C 172.333,345.167 172.667,344.833 173,344.5C 179,347.833 185,351.167 191,354.5C 192.333,354.5 193.667,354.5 195,354.5C 206.293,360.299 217.459,366.299 228.5,372.5C 229.425,371.643 230.092,370.643 230.5,369.5C 231.135,372.931 232.135,376.264 233.5,379.5C 233.5,380.167 233.5,380.833 233.5,381.5C 233.5,382.833 233.5,384.167 233.5,385.5C 230.035,384.516 226.869,382.85 224,380.5C 223.586,380.957 223.086,381.291 222.5,381.5C 216.51,378.447 210.676,375.114 205,371.5C 204.586,371.957 204.086,372.291 203.5,372.5C 184.364,362.676 165.53,353.009 147,343.5C 146.586,343.957 146.086,344.291 145.5,344.5C 139.957,340.632 133.957,337.632 127.5,335.5C 126.866,329.855 126.532,324.189 126.5,318.5 Z"/></g>
<g><path style="opacity:1" fill="#fc2778" d="M 307.5,332.5 C 311.67,334.222 316.003,335.555 320.5,336.5C 320.238,337.978 320.571,339.311 321.5,340.5C 343.579,350.138 365.246,360.638 386.5,372C 388.878,372.511 391.212,373.178 393.5,374C 398.476,377.433 403.81,380.1 409.5,382C 417.314,387.098 425.647,390.932 434.5,393.5C 434.014,390.618 434.014,387.952 434.5,385.5C 435.317,390.891 436.317,396.224 437.5,401.5C 436.527,403.948 436.194,406.615 436.5,409.5C 434.712,409.785 433.045,409.452 431.5,408.5C 404.297,395.065 376.964,381.899 349.5,369C 347.963,367.89 347.297,366.39 347.5,364.5C 344.306,363.242 340.973,362.576 337.5,362.5C 327.167,352.833 317.167,342.833 307.5,332.5 Z"/></g>
<g><path style="opacity:1" fill="#de31a5" d="M 127.5,335.5 C 133.957,337.632 139.957,340.632 145.5,344.5C 146.086,344.291 146.586,343.957 147,343.5C 165.53,353.009 184.364,362.676 203.5,372.5C 204.086,372.291 204.586,371.957 205,371.5C 210.676,375.114 216.51,378.447 222.5,381.5C 223.086,381.291 223.586,380.957 224,380.5C 226.869,382.85 230.035,384.516 233.5,385.5C 233.5,384.167 233.5,382.833 233.5,381.5C 234.913,384.219 235.58,387.219 235.5,390.5C 235.216,392.877 235.216,395.044 235.5,397C 232.756,396.981 230.089,396.314 227.5,395C 195.086,379.566 162.92,363.732 131,347.5C 130.667,347.833 130.333,348.167 130,348.5C 129.79,346.942 129.29,345.609 128.5,344.5C 128.037,341.518 127.704,338.518 127.5,335.5 Z"/></g>
<g><path style="opacity:0.995" fill="#a52798" d="M 69.5,298.5 C 69.9539,300.259 69.9539,302.259 69.5,304.5C 68.4441,309.781 67.7774,315.114 67.5,320.5C 66.1985,324.943 65.5319,329.609 65.5,334.5C 71.5486,334.696 77.2153,336.863 82.5,341C 89.9589,342.216 97.2922,344.383 104.5,347.5C 105.392,352.438 105.726,357.438 105.5,362.5C 104.935,364.386 103.935,366.053 102.5,367.5C 92.1001,364.986 82.4334,360.82 73.5,355C 70.8506,354.548 68.3506,353.714 66,352.5C 64.6667,353.167 63.6667,354.167 63,355.5C 62.7489,350.499 62.9155,345.499 63.5,340.5C 64.8523,326.367 66.8523,312.367 69.5,298.5 Z"/></g>
<g><path style="opacity:1" fill="#db33a9" d="M 128.5,344.5 C 129.29,345.609 129.79,346.942 130,348.5C 130.333,348.167 130.667,347.833 131,347.5C 162.92,363.732 195.086,379.566 227.5,395C 230.089,396.314 232.756,396.981 235.5,397C 235.216,395.044 235.216,392.877 235.5,390.5C 236.544,395.871 239.877,398.871 245.5,399.5C 245.082,400.222 244.416,400.722 243.5,401C 244.833,401.667 245.833,402.667 246.5,404C 307.847,433.326 369.847,462.992 432.5,493C 437.956,496.94 443.956,499.94 450.5,502C 449.944,502.383 449.611,502.883 449.5,503.5C 444.851,502.935 440.184,502.435 435.5,502C 335.502,453.171 235.169,404.504 134.5,356C 133.216,355.316 132.049,355.483 131,356.5C 130.626,354.509 129.793,352.842 128.5,351.5C 128.5,349.167 128.5,346.833 128.5,344.5 Z"/></g>
<g><path style="opacity:1" fill="#d934ac" d="M 128.5,351.5 C 129.793,352.842 130.626,354.509 131,356.5C 132.049,355.483 133.216,355.316 134.5,356C 235.169,404.504 335.502,453.171 435.5,502C 440.184,502.435 444.851,502.935 449.5,503.5C 450.778,503.218 451.778,502.551 452.5,501.5C 452.5,502.5 452.5,503.5 452.5,504.5C 436.833,504.5 421.167,504.5 405.5,504.5C 405.5,504.167 405.5,503.833 405.5,503.5C 410.5,503.5 415.5,503.5 420.5,503.5C 423.649,503.789 426.649,503.289 429.5,502C 422.614,499.876 416.281,496.709 410.5,492.5C 409.914,492.709 409.414,493.043 409,493.5C 396.849,487.035 384.682,480.701 372.5,474.5C 371.914,474.709 371.414,475.043 371,475.5C 365.185,472.002 359.352,468.502 353.5,465C 352.551,464.383 351.718,464.549 351,465.5C 345.36,461.891 339.527,458.558 333.5,455.5C 332.914,455.709 332.414,456.043 332,456.5C 326.386,452.895 320.553,449.562 314.5,446.5C 313.914,446.709 313.414,447.043 313,447.5C 302.667,441.253 292.167,435.42 281.5,430C 279.385,429.443 277.385,428.609 275.5,427.5C 274.914,427.709 274.414,428.043 274,428.5C 270.167,426 266.333,423.5 262.5,421C 251.833,416.333 241.167,411.667 230.5,407C 227.991,405.579 225.657,403.912 223.5,402C 213.904,398.533 204.571,394.533 195.5,390C 189.592,386.089 183.259,383.089 176.5,381C 170.423,376.787 164.09,373.787 157.5,372C 151.401,367.523 144.734,364.19 137.5,362C 135.751,360.708 133.918,359.542 132,358.5C 131.722,359.416 131.222,360.082 130.5,360.5C 130.167,360.5 129.833,360.5 129.5,360.5C 129.492,357.455 129.159,354.455 128.5,351.5 Z"/></g>
<g><path style="opacity:0.165" fill="#a21f76" d="M 227.5,349.5 C 228.961,355.016 230.294,360.683 231.5,366.5C 229.747,363.44 228.413,360.107 227.5,356.5C 227.5,354.167 227.5,351.833 227.5,349.5 Z"/></g>
<g><path style="opacity:1" fill="#d635b0" d="M 420.5,503.5 C 415.47,502.982 410.47,501.815 405.5,500C 399.601,496.106 393.268,493.106 386.5,491C 382.97,488.404 379.303,486.071 375.5,484C 369.61,483.412 364.61,481.079 360.5,477C 289.157,443.496 218.157,409.163 147.5,374C 142.024,371.982 136.69,369.815 131.5,367.5C 131.007,365.194 130.674,362.861 130.5,360.5C 131.222,360.082 131.722,359.416 132,358.5C 133.918,359.542 135.751,360.708 137.5,362C 144.734,364.19 151.401,367.523 157.5,372C 164.09,373.787 170.423,376.787 176.5,381C 183.259,383.089 189.592,386.089 195.5,390C 204.571,394.533 213.904,398.533 223.5,402C 225.657,403.912 227.991,405.579 230.5,407C 241.167,411.667 251.833,416.333 262.5,421C 266.333,423.5 270.167,426 274,428.5C 274.414,428.043 274.914,427.709 275.5,427.5C 277.385,428.609 279.385,429.443 281.5,430C 292.167,435.42 302.667,441.253 313,447.5C 313.414,447.043 313.914,446.709 314.5,446.5C 320.553,449.562 326.386,452.895 332,456.5C 332.414,456.043 332.914,455.709 333.5,455.5C 339.527,458.558 345.36,461.891 351,465.5C 351.718,464.549 352.551,464.383 353.5,465C 359.352,468.502 365.185,472.002 371,475.5C 371.414,475.043 371.914,474.709 372.5,474.5C 384.682,480.701 396.849,487.035 409,493.5C 409.414,493.043 409.914,492.709 410.5,492.5C 416.281,496.709 422.614,499.876 429.5,502C 426.649,503.289 423.649,503.789 420.5,503.5 Z"/></g>
<g><path style="opacity:0.995" fill="#99289f" d="M 63.5,340.5 C 62.9155,345.499 62.7489,350.499 63,355.5C 63.6667,354.167 64.6667,353.167 66,352.5C 68.3506,353.714 70.8506,354.548 73.5,355C 82.4334,360.82 92.1001,364.986 102.5,367.5C 103.935,366.053 104.935,364.386 105.5,362.5C 106.266,371.479 106.599,380.479 106.5,389.5C 105.691,391.292 105.191,393.292 105,395.5C 104.5,394.5 104,393.5 103.5,392.5C 99.2115,391.357 95.5449,389.19 92.5,386C 84.727,383.127 76.727,380.793 68.5,379C 65.0791,376.623 61.4124,374.79 57.5,373.5C 59.2671,362.342 61.2671,351.342 63.5,340.5 Z"/></g>
<g><path style="opacity:1" fill="#fe227f" d="M 337.5,362.5 C 340.973,362.576 344.306,363.242 347.5,364.5C 347.297,366.39 347.963,367.89 349.5,369C 376.964,381.899 404.297,395.065 431.5,408.5C 433.045,409.452 434.712,409.785 436.5,409.5C 436.194,406.615 436.527,403.948 437.5,401.5C 438.284,408.202 439.284,414.869 440.5,421.5C 439.566,422.568 439.232,423.901 439.5,425.5C 437.966,426.203 436.299,426.036 434.5,425C 424.487,420.724 414.82,415.724 405.5,410C 398.369,407.522 391.703,404.188 385.5,400C 378.082,397.707 371.249,394.207 365,389.5C 364.586,389.957 364.086,390.291 363.5,390.5C 357.473,387.442 351.64,384.109 346,380.5C 345.586,380.957 345.086,381.291 344.5,381.5C 340.77,379.732 337.103,377.898 333.5,376C 332.663,374.989 332.33,373.822 332.5,372.5C 334.58,370.427 336.246,368.093 337.5,365.5C 338.833,364.5 338.833,363.5 337.5,362.5 Z"/></g>
<g><path style="opacity:1" fill="#d336b4" d="M 131.5,367.5 C 136.69,369.815 142.024,371.982 147.5,374C 218.157,409.163 289.157,443.496 360.5,477C 364.61,481.079 369.61,483.412 375.5,484C 379.303,486.071 382.97,488.404 386.5,491C 393.268,493.106 399.601,496.106 405.5,500C 410.47,501.815 415.47,502.982 420.5,503.5C 415.5,503.5 410.5,503.5 405.5,503.5C 317.62,461.665 228.286,418.498 137.5,374C 135.564,373.187 133.564,372.687 131.5,372.5C 131.5,370.833 131.5,369.167 131.5,367.5 Z"/></g>
<g><path style="opacity:0.098" fill="#9f1c70" d="M 265.5,358.5 C 264.503,358.47 263.836,358.97 263.5,360C 262.037,363.571 260.704,367.071 259.5,370.5C 259.817,365.548 261.15,360.882 263.5,356.5C 264.522,356.855 265.189,357.522 265.5,358.5 Z"/></g>
<g><path style="opacity:1" fill="#d037b7" d="M 129.5,360.5 C 129.833,360.5 130.167,360.5 130.5,360.5C 130.674,362.861 131.007,365.194 131.5,367.5C 131.5,369.167 131.5,370.833 131.5,372.5C 133.564,372.687 135.564,373.187 137.5,374C 228.286,418.498 317.62,461.665 405.5,503.5C 405.5,503.833 405.5,504.167 405.5,504.5C 397.833,504.5 390.167,504.5 382.5,504.5C 374.833,504.5 367.167,504.5 359.5,504.5C 359.842,503.662 360.508,503.328 361.5,503.5C 366.167,503.5 370.833,503.5 375.5,503.5C 381.842,503.666 388.175,503.5 394.5,503C 388.808,502.324 383.475,500.657 378.5,498C 297.69,458.261 216.69,419.094 135.5,380.5C 134.402,376.639 133.569,376.639 133,380.5C 132.626,378.509 131.793,376.842 130.5,375.5C 129.746,370.537 129.413,365.537 129.5,360.5 Z"/></g>
<g><path style="opacity:0.384" fill="#9d217c" d="M 231.5,367.5 C 232.442,371.418 233.108,375.418 233.5,379.5C 232.135,376.264 231.135,372.931 230.5,369.5C 230.328,368.508 230.662,367.842 231.5,367.5 Z"/></g>
<g><path style="opacity:1" fill="#fc2586" d="M 332.5,372.5 C 332.33,373.822 332.663,374.989 333.5,376C 337.103,377.898 340.77,379.732 344.5,381.5C 345.086,381.291 345.586,380.957 346,380.5C 351.64,384.109 357.473,387.442 363.5,390.5C 364.086,390.291 364.586,389.957 365,389.5C 371.249,394.207 378.082,397.707 385.5,400C 391.703,404.188 398.369,407.522 405.5,410C 414.82,415.724 424.487,420.724 434.5,425C 436.299,426.036 437.966,426.203 439.5,425.5C 440.758,429.123 440.758,432.79 439.5,436.5C 403.679,418.64 368.012,401.474 332.5,385C 329.931,383.241 327.597,381.407 325.5,379.5C 327.5,376.833 329.833,374.5 332.5,372.5 Z"/></g>
<g><path style="opacity:1" fill="#ea2c99" d="M 269.5,381.5 C 279.228,387.691 289.561,392.858 300.5,397C 341.242,417.394 382.242,437.061 423.5,456C 427.059,457.63 430.392,459.63 433.5,462C 437.253,463.989 441.253,464.822 445.5,464.5C 445.249,459.493 444.916,454.493 444.5,449.5C 446.136,455.603 447.136,461.936 447.5,468.5C 447.5,471.167 447.5,473.833 447.5,476.5C 444.763,475.969 442.096,475.136 439.5,474C 435.868,472.516 432.534,470.516 429.5,468C 418.167,463 406.833,458 395.5,453C 350.011,429.985 304.178,407.485 258,385.5C 257.667,385.833 257.333,386.167 257,386.5C 256.544,385.256 257.044,384.423 258.5,384C 257.958,376.816 260.291,375.816 265.5,381C 266.793,381.49 268.127,381.657 269.5,381.5 Z"/></g>
<g><path style="opacity:1" fill="#cd38b9" d="M 130.5,375.5 C 131.793,376.842 132.626,378.509 133,380.5C 133.569,376.639 134.402,376.639 135.5,380.5C 216.69,419.094 297.69,458.261 378.5,498C 383.475,500.657 388.808,502.324 394.5,503C 388.175,503.5 381.842,503.666 375.5,503.5C 375.611,502.883 375.944,502.383 376.5,502C 335.137,482.557 294.137,462.557 253.5,442C 214.257,423.55 174.923,404.716 135.5,385.5C 134.719,386.729 134.219,388.062 134,389.5C 134.03,386.639 133.197,384.305 131.5,382.5C 130.88,380.631 130.547,378.298 130.5,375.5 Z"/></g>
<g><path style="opacity:0.995" fill="#8c29a5" d="M 57.5,373.5 C 61.4124,374.79 65.0791,376.623 68.5,379C 76.727,380.793 84.727,383.127 92.5,386C 95.5449,389.19 99.2115,391.357 103.5,392.5C 104,393.5 104.5,394.5 105,395.5C 105.191,393.292 105.691,391.292 106.5,389.5C 107.719,400.982 108.386,412.649 108.5,424.5C 107.493,421.678 106.66,418.678 106,415.5C 105.517,416.448 105.351,417.448 105.5,418.5C 103.345,418.628 101.345,418.128 99.5,417C 100.167,416.667 100.833,416.333 101.5,416C 99.2746,415.439 97.2746,414.439 95.5,413C 94.1667,412.333 94.1667,411.667 95.5,411C 89.6735,407.5 83.3402,405.167 76.5,404C 75.3961,402.869 75.7295,402.035 77.5,401.5C 79.0046,404.131 79.6713,403.797 79.5,400.5C 71.5941,399.64 64.2607,396.974 57.5,392.5C 56.4822,393.193 55.4822,393.859 54.5,394.5C 55.7782,387.553 56.7782,380.553 57.5,373.5 Z"/></g>
<g><path style="opacity:1" fill="#f7278c" d="M 325.5,379.5 C 327.597,381.407 329.931,383.241 332.5,385C 368.012,401.474 403.679,418.64 439.5,436.5C 440.758,432.79 440.758,429.123 439.5,425.5C 439.232,423.901 439.566,422.568 440.5,421.5C 441.167,425.5 441.833,429.5 442.5,433.5C 442.558,438.704 442.558,444.038 442.5,449.5C 440.289,448.877 438.289,447.877 436.5,446.5C 435.914,446.709 435.414,447.043 435,447.5C 418.104,438.56 401.271,429.726 384.5,421C 377.91,419.213 371.577,416.213 365.5,412C 362.595,410.714 359.595,409.714 356.5,409C 346.5,403.667 336.5,398.333 326.5,393C 322.846,391.726 319.18,390.56 315.5,389.5C 318.5,385.833 321.833,382.5 325.5,379.5 Z"/></g>
<g><path style="opacity:0.999" fill="#c93bbd" d="M 131.5,382.5 C 133.197,384.305 134.03,386.639 134,389.5C 134.219,388.062 134.719,386.729 135.5,385.5C 174.923,404.716 214.257,423.55 253.5,442C 294.137,462.557 335.137,482.557 376.5,502C 375.944,502.383 375.611,502.883 375.5,503.5C 370.833,503.5 366.167,503.5 361.5,503.5C 352.859,501.75 344.859,498.25 337.5,493C 329.105,488.805 320.438,485.139 311.5,482C 306.909,477.806 301.576,475.139 295.5,474C 289.268,469.761 282.601,466.428 275.5,464C 229.656,440.913 183.323,418.58 136.5,397C 134.996,395.509 134.163,393.676 134,391.5C 133.809,393.708 133.309,395.708 132.5,397.5C 131.746,392.537 131.413,387.537 131.5,382.5 Z"/></g>
<g><path style="opacity:1" fill="#e42f9f" d="M 259.5,370.5 C 259.34,372.199 259.506,373.866 260,375.5C 262.5,376.667 265,377.833 267.5,379C 268.381,379.708 269.047,380.542 269.5,381.5C 268.127,381.657 266.793,381.49 265.5,381C 260.291,375.816 257.958,376.816 258.5,384C 257.044,384.423 256.544,385.256 257,386.5C 257.333,386.167 257.667,385.833 258,385.5C 304.178,407.485 350.011,429.985 395.5,453C 406.833,458 418.167,463 429.5,468C 432.534,470.516 435.868,472.516 439.5,474C 442.096,475.136 444.763,475.969 447.5,476.5C 447.5,473.833 447.5,471.167 447.5,468.5C 448.701,473.008 449.701,477.675 450.5,482.5C 449.556,485.668 449.556,489.001 450.5,492.5C 445.412,488.598 439.912,485.265 434,482.5C 433.667,482.833 433.333,483.167 433,483.5C 424.292,478.043 415.125,473.543 405.5,470C 401.503,466.338 396.836,464.005 391.5,463C 387.261,461.098 383.261,458.765 379.5,456C 363.744,449.291 348.077,442.291 332.5,435C 321.517,430.013 311.017,424.179 301,417.5C 300.586,417.957 300.086,418.291 299.5,418.5C 293.473,415.442 287.64,412.109 282,408.5C 281.586,408.957 281.086,409.291 280.5,409.5C 274.751,406.423 269.085,403.256 263.5,400C 260.287,399.394 257.287,398.227 254.5,396.5C 253.272,398.176 251.939,398.509 250.5,397.5C 253.662,388.505 256.662,379.505 259.5,370.5 Z"/></g>
<g><path style="opacity:1" fill="#f02a93" d="M 265.5,358.5 C 277.578,372.081 290.244,385.247 303.5,398C 304.5,398.667 305.5,398.667 306.5,398C 309.369,394.962 312.369,392.129 315.5,389.5C 319.18,390.56 322.846,391.726 326.5,393C 336.5,398.333 346.5,403.667 356.5,409C 359.595,409.714 362.595,410.714 365.5,412C 371.577,416.213 377.91,419.213 384.5,421C 401.271,429.726 418.104,438.56 435,447.5C 435.414,447.043 435.914,446.709 436.5,446.5C 438.289,447.877 440.289,448.877 442.5,449.5C 442.558,444.038 442.558,438.704 442.5,433.5C 443.601,438.773 444.267,444.106 444.5,449.5C 444.916,454.493 445.249,459.493 445.5,464.5C 441.253,464.822 437.253,463.989 433.5,462C 430.392,459.63 427.059,457.63 423.5,456C 382.242,437.061 341.242,417.394 300.5,397C 289.561,392.858 279.228,387.691 269.5,381.5C 269.047,380.542 268.381,379.708 267.5,379C 265,377.833 262.5,376.667 260,375.5C 259.506,373.866 259.34,372.199 259.5,370.5C 260.704,367.071 262.037,363.571 263.5,360C 263.836,358.97 264.503,358.47 265.5,358.5 Z"/></g>
<g><path style="opacity:0.537" fill="#b62079" d="M 265.5,358.5 C 278.798,371.298 291.965,384.298 305,397.5C 315.702,386.631 326.535,375.965 337.5,365.5C 336.246,368.093 334.58,370.427 332.5,372.5C 329.833,374.5 327.5,376.833 325.5,379.5C 321.833,382.5 318.5,385.833 315.5,389.5C 312.369,392.129 309.369,394.962 306.5,398C 305.5,398.667 304.5,398.667 303.5,398C 290.244,385.247 277.578,372.081 265.5,358.5 Z"/></g>
<g><path style="opacity:1" fill="#c43dc4" d="M 361.5,503.5 C 360.508,503.328 359.842,503.662 359.5,504.5C 346.5,504.5 333.5,504.5 320.5,504.5C 320.5,504.167 320.5,503.833 320.5,503.5C 323.397,503.875 326.063,503.375 328.5,502C 265.423,470.948 202.423,440.615 139.5,411C 135.938,407.664 133.604,403.831 132.5,399.5C 132.5,398.833 132.5,398.167 132.5,397.5C 133.309,395.708 133.809,393.708 134,391.5C 134.163,393.676 134.996,395.509 136.5,397C 183.323,418.58 229.656,440.913 275.5,464C 282.601,466.428 289.268,469.761 295.5,474C 301.576,475.139 306.909,477.806 311.5,482C 320.438,485.139 329.105,488.805 337.5,493C 344.859,498.25 352.859,501.75 361.5,503.5 Z"/></g>
<g><path style="opacity:1" fill="#df32a5" d="M 450.5,492.5 C 451.167,495.5 451.833,498.5 452.5,501.5C 451.778,502.551 450.778,503.218 449.5,503.5C 449.611,502.883 449.944,502.383 450.5,502C 443.956,499.94 437.956,496.94 432.5,493C 369.847,462.992 307.847,433.326 246.5,404C 245.833,402.667 244.833,401.667 243.5,401C 244.416,400.722 245.082,400.222 245.5,399.5C 246.93,398.463 248.597,397.796 250.5,397.5C 251.939,398.509 253.272,398.176 254.5,396.5C 257.287,398.227 260.287,399.394 263.5,400C 269.085,403.256 274.751,406.423 280.5,409.5C 281.086,409.291 281.586,408.957 282,408.5C 287.64,412.109 293.473,415.442 299.5,418.5C 300.086,418.291 300.586,417.957 301,417.5C 311.017,424.179 321.517,430.013 332.5,435C 348.077,442.291 363.744,449.291 379.5,456C 383.261,458.765 387.261,461.098 391.5,463C 396.836,464.005 401.503,466.338 405.5,470C 415.125,473.543 424.292,478.043 433,483.5C 433.333,483.167 433.667,482.833 434,482.5C 439.912,485.265 445.412,488.598 450.5,492.5 Z"/></g>
<g><path style="opacity:0.996" fill="#812aab" d="M 108.5,424.5 C 109.261,433.825 109.928,443.158 110.5,452.5C 108.824,451.817 108.157,450.483 108.5,448.5C 109.146,444.247 107.48,441.414 103.5,440C 104.167,439.667 104.833,439.333 105.5,439C 104.069,438.535 102.903,437.701 102,436.5C 99.7579,437.175 97.5912,436.675 95.5,435C 96.3081,434.692 96.9747,434.192 97.5,433.5C 94.4778,431.989 91.4778,430.489 88.5,429C 89.5,428.667 90.5,428.333 91.5,428C 87.5601,427.755 83.5601,426.755 79.5,425C 81.087,424.138 82.7536,423.471 84.5,423C 80.575,421.416 76.575,420.083 72.5,419C 69.4656,416.484 66.1323,414.484 62.5,413C 61.1667,412.333 61.1667,411.667 62.5,411C 59.1935,410.308 56.3602,408.808 54,406.5C 53.6821,410.195 53.1821,413.862 52.5,417.5C 52.2528,418.713 51.5862,419.38 50.5,419.5C 52.2046,411.235 53.538,402.902 54.5,394.5C 55.4822,393.859 56.4822,393.193 57.5,392.5C 64.2607,396.974 71.5941,399.64 79.5,400.5C 79.6713,403.797 79.0046,404.131 77.5,401.5C 75.7295,402.035 75.3961,402.869 76.5,404C 83.3402,405.167 89.6735,407.5 95.5,411C 94.1667,411.667 94.1667,412.333 95.5,413C 97.2746,414.439 99.2746,415.439 101.5,416C 100.833,416.333 100.167,416.667 99.5,417C 101.345,418.128 103.345,418.628 105.5,418.5C 105.351,417.448 105.517,416.448 106,415.5C 106.66,418.678 107.493,421.678 108.5,424.5 Z"/></g>
<g><path style="opacity:0.999" fill="#bd3fca" d="M 132.5,399.5 C 133.604,403.831 135.938,407.664 139.5,411C 202.423,440.615 265.423,470.948 328.5,502C 326.063,503.375 323.397,503.875 320.5,503.5C 314.779,503.631 309.112,503.131 303.5,502C 272.454,487.012 241.787,471.679 211.5,456C 204.761,453.946 198.428,450.946 192.5,447C 183.167,443 173.833,439 164.5,435C 162.089,433.045 159.589,431.211 157,429.5C 155.636,430.258 154.469,429.758 153.5,428C 148.533,426.786 143.866,424.786 139.5,422C 137.513,420.681 136.346,418.848 136,416.5C 135.79,418.058 135.29,419.391 134.5,420.5C 133.778,413.508 133.112,406.508 132.5,399.5 Z"/></g>
<g><path style="opacity:1" fill="#b841d0" d="M 320.5,503.5 C 320.5,503.833 320.5,504.167 320.5,504.5C 318.5,504.5 316.5,504.5 314.5,504.5C 301.833,504.5 289.167,504.5 276.5,504.5C 278.631,503.686 280.964,503.186 283.5,503C 274.998,500.501 267.165,496.668 260,491.5C 259.667,491.833 259.333,492.167 259,492.5C 251.886,488.814 244.886,485.147 238,481.5C 205.451,466.15 172.617,450.483 139.5,434.5C 138.749,433.624 138.249,432.624 138,431.5C 137.998,434.051 137.164,436.051 135.5,437.5C 135.365,431.819 135.032,426.152 134.5,420.5C 135.29,419.391 135.79,418.058 136,416.5C 136.346,418.848 137.513,420.681 139.5,422C 143.866,424.786 148.533,426.786 153.5,428C 154.469,429.758 155.636,430.258 157,429.5C 159.589,431.211 162.089,433.045 164.5,435C 173.833,439 183.167,443 192.5,447C 198.428,450.946 204.761,453.946 211.5,456C 241.787,471.679 272.454,487.012 303.5,502C 309.112,503.131 314.779,503.631 320.5,503.5 Z"/></g>
<g><path style="opacity:1" fill="#7a2bb0" d="M 108.5,448.5 C 100.562,447.23 92.8954,444.396 85.5,440C 81.0721,439.413 76.7387,438.413 72.5,437C 65.7317,433.741 59.065,430.241 52.5,426.5C 51.9495,424.343 51.2829,422.343 50.5,420.5C 50.5,420.167 50.5,419.833 50.5,419.5C 51.5862,419.38 52.2528,418.713 52.5,417.5C 53.1821,413.862 53.6821,410.195 54,406.5C 56.3602,408.808 59.1935,410.308 62.5,411C 61.1667,411.667 61.1667,412.333 62.5,413C 66.1323,414.484 69.4656,416.484 72.5,419C 76.575,420.083 80.575,421.416 84.5,423C 82.7536,423.471 81.087,424.138 79.5,425C 83.5601,426.755 87.5601,427.755 91.5,428C 90.5,428.333 89.5,428.667 88.5,429C 91.4778,430.489 94.4778,431.989 97.5,433.5C 96.9747,434.192 96.3081,434.692 95.5,435C 97.5912,436.675 99.7579,437.175 102,436.5C 102.903,437.701 104.069,438.535 105.5,439C 104.833,439.333 104.167,439.667 103.5,440C 107.48,441.414 109.146,444.247 108.5,448.5 Z"/></g>
<g><path style="opacity:1" fill="#722bb2" d="M 50.5,420.5 C 51.2829,422.343 51.9495,424.343 52.5,426.5C 59.065,430.241 65.7317,433.741 72.5,437C 76.7387,438.413 81.0721,439.413 85.5,440C 92.8954,444.396 100.562,447.23 108.5,448.5C 108.157,450.483 108.824,451.817 110.5,452.5C 110.5,456.833 110.5,461.167 110.5,465.5C 107.983,463.265 104.983,461.765 101.5,461C 103.167,460.667 104.833,460.333 106.5,460C 100.865,457.193 94.8654,455.526 88.5,455C 82.2357,450.256 75.4024,447.756 68,447.5C 62.5733,443.736 56.9067,440.403 51,437.5C 50.6827,439.301 50.016,439.634 49,438.5C 48.6894,442.09 47.856,445.423 46.5,448.5C 47.4,439.1 48.7334,429.767 50.5,420.5 Z"/></g>
<g><path style="opacity:1" fill="#b044d7" d="M 276.5,504.5 C 268.167,504.5 259.833,504.5 251.5,504.5C 250.833,504.5 250.167,504.5 249.5,504.5C 249.5,504.167 249.5,503.833 249.5,503.5C 249.918,502.778 250.584,502.278 251.5,502C 244.579,499.869 238.246,496.702 232.5,492.5C 231.914,492.709 231.414,493.043 231,493.5C 218.805,487.075 206.638,480.742 194.5,474.5C 193.914,474.709 193.414,475.043 193,475.5C 186.768,471.925 180.601,468.258 174.5,464.5C 173.914,464.709 173.414,465.043 173,465.5C 167.324,461.886 161.49,458.553 155.5,455.5C 154.914,455.709 154.414,456.043 154,456.5C 150.189,454.034 146.356,451.534 142.5,449C 141.207,448.51 139.873,448.343 138.5,448.5C 138.784,450.415 138.451,452.081 137.5,453.5C 136.774,448.184 136.107,442.851 135.5,437.5C 137.164,436.051 137.998,434.051 138,431.5C 138.249,432.624 138.749,433.624 139.5,434.5C 172.617,450.483 205.451,466.15 238,481.5C 244.886,485.147 251.886,488.814 259,492.5C 259.333,492.167 259.667,491.833 260,491.5C 267.165,496.668 274.998,500.501 283.5,503C 280.964,503.186 278.631,503.686 276.5,504.5 Z"/></g>
<g><path style="opacity:0.998" fill="#682bb7" d="M 110.5,465.5 C 111.403,474.476 112.07,483.476 112.5,492.5C 110.75,489.645 109.917,486.311 110,482.5C 109.808,484.577 109.308,486.577 108.5,488.5C 106.333,487.052 104,485.885 101.5,485C 102.5,484.667 103.5,484.333 104.5,484C 101.247,482.964 97.914,482.297 94.5,482C 87.9919,479.579 81.4919,477.079 75,474.5C 74.6667,474.833 74.3333,475.167 74,475.5C 65.2249,469.533 56.3916,465.033 47.5,462C 47.273,460.865 46.9396,459.698 46.5,458.5C 45.4222,463.455 44.5888,468.455 44,473.5C 43.6174,474.056 43.1174,474.389 42.5,474.5C 43.5552,465.779 44.8886,457.112 46.5,448.5C 47.856,445.423 48.6894,442.09 49,438.5C 50.016,439.634 50.6827,439.301 51,437.5C 56.9067,440.403 62.5733,443.736 68,447.5C 75.4024,447.756 82.2357,450.256 88.5,455C 94.8654,455.526 100.865,457.193 106.5,460C 104.833,460.333 103.167,460.667 101.5,461C 104.983,461.765 107.983,463.265 110.5,465.5 Z"/></g>
<g><path style="opacity:1" fill="#aa46dd" d="M 249.5,503.5 C 242.137,503.831 234.803,503.497 227.5,502.5C 220.872,499.034 214.372,495.367 208,491.5C 207.667,491.833 207.333,492.167 207,492.5C 205.933,491.809 204.766,491.309 203.5,491C 187.119,482.58 170.453,474.08 153.5,465.5C 148.84,464.396 144.506,462.729 140.5,460.5C 140.719,459.325 140.386,458.325 139.5,457.5C 138.828,458.949 138.161,460.282 137.5,461.5C 137.5,458.833 137.5,456.167 137.5,453.5C 138.451,452.081 138.784,450.415 138.5,448.5C 139.873,448.343 141.207,448.51 142.5,449C 146.356,451.534 150.189,454.034 154,456.5C 154.414,456.043 154.914,455.709 155.5,455.5C 161.49,458.553 167.324,461.886 173,465.5C 173.414,465.043 173.914,464.709 174.5,464.5C 180.601,468.258 186.768,471.925 193,475.5C 193.414,475.043 193.914,474.709 194.5,474.5C 206.638,480.742 218.805,487.075 231,493.5C 231.414,493.043 231.914,492.709 232.5,492.5C 238.246,496.702 244.579,499.869 251.5,502C 250.584,502.278 249.918,502.778 249.5,503.5 Z"/></g>
<g><path style="opacity:0.999" fill="#a449e2" d="M 249.5,503.5 C 249.5,503.833 249.5,504.167 249.5,504.5C 234.833,504.5 220.167,504.5 205.5,504.5C 206.263,503.732 207.263,503.232 208.5,503C 206.167,502.667 203.833,502.333 201.5,502C 185.052,493.216 168.385,484.883 151.5,477C 147.613,476.761 143.946,475.928 140.5,474.5C 140.815,478.371 140.482,482.038 139.5,485.5C 138.833,477.5 138.167,469.5 137.5,461.5C 138.161,460.282 138.828,458.949 139.5,457.5C 140.386,458.325 140.719,459.325 140.5,460.5C 144.506,462.729 148.84,464.396 153.5,465.5C 170.453,474.08 187.119,482.58 203.5,491C 204.766,491.309 205.933,491.809 207,492.5C 207.333,492.167 207.667,491.833 208,491.5C 214.372,495.367 220.872,499.034 227.5,502.5C 234.803,503.497 242.137,503.831 249.5,503.5 Z"/></g>
<g><path style="opacity:1" fill="#9c4ceb" d="M 205.5,504.5 C 183.833,504.5 162.167,504.5 140.5,504.5C 140.443,498.149 140.11,491.815 139.5,485.5C 140.482,482.038 140.815,478.371 140.5,474.5C 143.946,475.928 147.613,476.761 151.5,477C 168.385,484.883 185.052,493.216 201.5,502C 203.833,502.333 206.167,502.667 208.5,503C 207.263,503.232 206.263,503.732 205.5,504.5 Z"/></g>
<g><path style="opacity:0.998" fill="#602bba" d="M 112.5,492.5 C 112.5,493.5 112.5,494.5 112.5,495.5C 111.523,498.287 111.19,501.287 111.5,504.5C 87.1667,504.5 62.8333,504.5 38.5,504.5C 38.5,503.5 38.5,502.5 38.5,501.5C 39.2753,492.406 40.6086,483.406 42.5,474.5C 43.1174,474.389 43.6174,474.056 44,473.5C 44.5888,468.455 45.4222,463.455 46.5,458.5C 46.9396,459.698 47.273,460.865 47.5,462C 56.3916,465.033 65.2249,469.533 74,475.5C 74.3333,475.167 74.6667,474.833 75,474.5C 81.4919,477.079 87.9919,479.579 94.5,482C 97.914,482.297 101.247,482.964 104.5,484C 103.5,484.333 102.5,484.667 101.5,485C 104,485.885 106.333,487.052 108.5,488.5C 109.308,486.577 109.808,484.577 110,482.5C 109.917,486.311 110.75,489.645 112.5,492.5 Z"/></g>
<g><path style="opacity:0.548" fill="#6f36b3" d="M 140.5,504.5 C 162.167,504.5 183.833,504.5 205.5,504.5C 220.167,504.5 234.833,504.5 249.5,504.5C 250.167,504.5 250.833,504.5 251.5,504.5C 244.167,505.167 236.833,505.833 229.5,506.5C 200.165,506.667 170.831,506.5 141.5,506C 140.944,505.617 140.611,505.117 140.5,504.5 Z"/></g>
<g><path style="opacity:0.472" fill="#99268a" d="M 450.5,482.5 C 451.826,490.123 452.826,497.79 453.5,505.5C 429.852,506.438 406.186,506.771 382.5,506.5C 382.5,505.833 382.5,505.167 382.5,504.5C 390.167,504.5 397.833,504.5 405.5,504.5C 421.167,504.5 436.833,504.5 452.5,504.5C 452.5,503.5 452.5,502.5 452.5,501.5C 451.833,498.5 451.167,495.5 450.5,492.5C 449.556,489.001 449.556,485.668 450.5,482.5 Z"/></g>
<g><path style="opacity:0.012" fill="#472494" d="M 112.5,495.5 C 112.789,499.106 112.456,502.606 111.5,506C 87.5,506.667 63.5,506.667 39.5,506C 37.4215,504.73 37.0882,503.23 38.5,501.5C 38.5,502.5 38.5,503.5 38.5,504.5C 62.8333,504.5 87.1667,504.5 111.5,504.5C 111.19,501.287 111.523,498.287 112.5,495.5 Z"/></g>
<g><path style="opacity:0.035" fill="#782f9e" d="M 251.5,504.5 C 259.833,504.5 268.167,504.5 276.5,504.5C 289.167,504.5 301.833,504.5 314.5,504.5C 311.167,505.167 307.833,505.833 304.5,506.5C 279.5,506.5 254.5,506.5 229.5,506.5C 236.833,505.833 244.167,505.167 251.5,504.5 Z"/></g>
<g><path style="opacity:0.007" fill="#842a92" d="M 314.5,504.5 C 316.5,504.5 318.5,504.5 320.5,504.5C 333.5,504.5 346.5,504.5 359.5,504.5C 367.167,504.5 374.833,504.5 382.5,504.5C 382.5,505.167 382.5,505.833 382.5,506.5C 356.5,506.5 330.5,506.5 304.5,506.5C 307.833,505.833 311.167,505.167 314.5,504.5 Z"/></g>
</svg>
